<?xml version="1.0" encoding="UTF-8"?>
<svg width="294px" height="269px" viewBox="0 0 294 269" version="1.1" xmlns="http://www.w3.org/2000/svg" xmlns:xlink="http://www.w3.org/1999/xlink">
    <title>iram-logo</title>
    <defs>
        <polygon id="path-1" points="0 0 21.2933224 0 21.2933224 21.2935659 0 21.2935659"></polygon>
    </defs>
    <g id="Symbols" stroke="none" stroke-width="1" fill="none" fill-rule="evenodd">
        <g id="iram-logo" transform="translate(0.000000, 0.207327)">
            <polygon id="Fill-1" fill="#1A1A2E" points="5.58366215 192.167778 15.2574661 192.167778 15.2574661 138.960692 5.58366215 138.960692"></polygon>
            <g id="Group-52">
                <path d="M28.0231387,155.560369 C28.0231387,149.294505 27.913072,143.908751 27.5830836,138.960618 L36.0466831,138.960618 L36.4867382,149.404571 L36.8168324,149.404571 C39.2347013,142.258597 45.1729052,137.75052 51.6563626,137.75052 C52.6464337,137.75052 53.416583,137.86302 54.2965874,138.083048 L54.2965874,147.099203 C53.1965555,146.986703 52.2063786,146.876742 50.8886474,146.876742 C44.0727675,146.876742 39.2347013,152.042468 37.914536,159.188336 C37.6969427,160.616028 37.586876,162.156221 37.586876,163.806481 L37.586876,192.167704 L27.913072,192.167704 L28.0231387,155.560369 Z" id="Fill-2" fill="#1A1A2E"></path>
                <path d="M94.5366316,160.618759 C94.5366316,159.298593 94.4265649,157.760835 94.0990106,156.440669 C92.6688845,150.394939 87.3930916,145.339174 80.1371565,145.339174 C70.13093,145.339174 64.1950544,154.135407 64.1950544,165.786919 C64.1950544,176.668388 69.5832423,185.572148 79.9146948,185.572148 C86.4030205,185.572148 92.3387902,181.176465 94.0990106,174.030491 C94.4265649,172.710432 94.5366316,171.390266 94.5366316,169.852508 L94.5366316,160.618759 Z M104.210436,138.765334 L104.210436,178.428608 C104.210436,183.154279 104.320396,188.542467 104.650491,192.170435 L95.9667577,192.170435 L95.5267026,182.934252 L95.3066751,182.934252 C92.3387902,188.872455 85.9629654,193.378099 77.2767983,193.378099 C64.4175161,193.378099 54.4137238,182.496631 54.4137238,166.334501 C54.3037629,148.527086 65.4052589,137.75325 78.2669752,137.75325 C86.5105472,137.75325 92.0088018,141.601245 94.3190382,145.779229 L94.5366316,145.779229 L94.5366316,138.765334 L104.210436,138.765334 Z" id="Fill-4" fill="#1A1A2E"></path>
                <path d="M115.171131,153.363035 C115.171131,147.757254 114.951103,143.361677 114.731076,138.961126 L123.194675,138.961126 L123.63473,147.537227 L123.964825,147.537227 C126.932709,142.481567 131.880842,137.753462 140.784497,137.753462 C147.928037,137.753462 153.423751,142.151473 155.734094,148.417337 L155.954121,148.417337 C157.601841,145.339491 159.799682,143.139216 161.999958,141.491496 C165.185436,139.073627 168.59581,137.753462 173.65147,137.753462 C180.79501,137.753462 191.241291,142.369066 191.241291,160.836564 L191.241291,192.170646 L181.785081,192.170646 L181.785081,162.049202 C181.785081,151.715316 177.93952,145.667045 170.24353,145.667045 C164.637748,145.667045 160.457331,149.737502 158.701979,154.353212 C158.261923,155.783338 157.931829,157.543559 157.931829,159.188844 L157.931829,192.170646 L148.478053,192.170646 L148.478053,160.288982 C148.478053,151.715316 144.740124,145.667045 137.374123,145.667045 C131.440787,145.667045 126.932709,150.505111 125.394951,155.343283 C124.844935,156.770975 124.624907,158.418695 124.624907,160.068955 L124.624907,192.170646 L115.171131,192.170646 L115.171131,153.363035 Z" id="Fill-6" fill="#1A1A2E"></path>
                <g id="Group-10" transform="translate(0.000000, 107.095083)">
                    <mask id="mask-2" fill="white">
                        <use xlink:href="#path-1"></use>
                    </mask>
                    <g id="Clip-9"></g>
                    <path d="M21.2933224,10.6444017 C21.2933224,16.5239739 16.5260588,21.2935659 10.6464866,21.2935659 C4.76691438,21.2935659 -0.000349250082,16.5239739 -0.000349250082,10.6468358 C-0.000349250082,4.76726363 4.76448021,0 10.6464866,0 C16.5260588,0 21.2933224,4.76726363 21.2933224,10.6444017 Z" id="Fill-8" fill="#ED2626" mask="url(#mask-2)"></path>
                </g>
                <path d="M24.9882402,99.533279 C24.3892233,100.127322 24.6459751,101.352131 25.5578353,102.261663 C26.4746697,103.168655 27.6994791,103.427735 28.2983901,102.828824 L28.3008243,102.826284 C97.2886164,34.1490069 183.431149,20.8374987 228.145214,65.3486809 C272.859279,109.862297 258.939017,195.997422 189.943922,264.674699 C189.34988,265.266413 189.60896,266.486248 190.515952,267.39578 C191.43522,268.312509 192.65749,268.561852 193.256507,267.96781 C236.767775,224.647147 269.585853,174.906738 284.699174,128.63777 C300.000667,81.8089431 295.822683,43.4805457 272.954635,20.7152612 C250.079283,-2.05743169 211.579753,-6.20620517 164.540741,9.02205093 C118.066456,24.0694378 68.5019429,56.2151562 24.9906743,99.533279 L24.9882402,99.533279 Z" id="Fill-11" fill="#2679C2"></path>
            </g>
        </g>
    </g>
</svg>