<svg xmlns="http://www.w3.org/2000/svg" width="126" height="49"><path fill="#DE0C47" d="M88.5 9.7c-2.1 0-3.8 1.7-3.8 3.8v20.6c0 3.9-3.2 7.1-7.1 7.1s-7.1-3.2-7.1-7.1V13.6c0-2.1-1.7-3.8-3.8-3.8-2.1 0-3.8 1.7-3.8 3.8v20.6c0 8.1 6.6 14.7 14.7 14.7s14.7-6.6 14.7-14.7V13.6c.1-2.1-1.6-3.9-3.8-3.9z"/><g fill="#9AD21C"><circle cx="37.7" cy="4.2" r="4"/><path d="M52.4 8.2c2.2 0 4-1.8 4-4s-1.8-4-4-4-4 1.8-4 4 1.8 4 4 4zM59.6 12.7c-.3-1-1-1.9-1.9-2.4-.6-.3-1.3-.5-1.9-.5-1.5 0-2.8.8-3.5 2.1-1.8 3.3-5.2 9.7-7.2 13.1l-7.2-13.1c-.7-1.3-2.1-2.1-3.5-2.1-.7 0-1.3.2-1.9.5-.9.5-1.6 1.4-1.9 2.4-.3 1-.2 2.1.3 3.1 1 2 9.1 16.6 10.1 18.5v10.5c0 2.2 1.8 4 4 4s4-1.8 4-4V34.4l10.2-18.6c.6-1 .7-2.1.4-3.1z"/></g><path fill="#0FCBEA" d="M121.3 35.9l-1-1.7.2-.2c3.3-2.5 5.4-6.4 5.4-10.8 0-7.4-6-13.5-13.5-13.5h-12.2c-2.1 0-3.8 1.7-3.8 3.8V45c0 2.1 1.7 3.8 3.8 3.8 2.1 0 3.8-1.7 3.8-3.8v-8.4H112.9l1.5 2.7 4.3 7.6c1 1.8 3.4 2.5 5.2 1.4 1.8-1 2.5-3.4 1.4-5.2l-4-7.2zm-8.8-6.8h-8.4V17.4h8.4c3.2 0 5.8 2.6 5.8 5.8.1 3.2-2.6 5.9-5.8 5.9z"/><path fill="#9AD21C" d="M16 9.7H3.8C1.7 9.7 0 11.4 0 13.5V45c0 2.1 1.7 3.8 3.8 3.8 2.1 0 3.8-1.7 3.8-3.8v-8.4H16c7.4 0 13.5-6 13.5-13.5-.1-7.3-6.1-13.4-13.5-13.4zm0 19.4H7.6V17.4h8.2c3.2 0 5.8 2.6 5.8 5.8.1 3.2-2.6 5.9-5.6 5.9z"/></svg>