<?xml version="1.0" encoding="utf-8"?>
<svg version="1.1" xmlns="http://www.w3.org/2000/svg" xmlns:xlink="http://www.w3.org/1999/xlink" x="0px" y="0px"
	 viewBox="0 0 166.591 83.31" enable-background="new 0 0 166.591 83.31" xml:space="preserve">
<g>
	<g>
		<path fill="#005EAA" d="M135.532,21.6c-1.137-0.272-1.537,0-2.274-0.272c-0.736-0.266-4.28-2.556-8.225-2.087
			c-3.945,0.471-7.09,1.551-9.695,2.495c-2.606,0.945-5.283,3.706-5.082,4.18c0.199,0.471,2.273,0.94,2.809,0.674
			c0.535-0.271,0.603-1.351,4.412-3.372c3.813-2.021,7.492-2.359,9.363-2.426c1.871-0.067,3.479,1.35,3.479,1.35
			s-1.139,3.233-1.071,4.715c0.066,1.485,0.133,4.855,0.401,5.529c0.265,0.674,0.934,1.078,0.934,1.078s-0.264,2.696-2.273,5.258
			c-2.006,2.561-6.352,2.764-8.692,2.965c-7.088,0.809-15.648-2.021-15.648-2.021s-1.47,0.066-1.738,0.404
			c-0.264,0.338-0.133,0.674,0,1.616c0.134,0.946-2.942,10.111-2.942,10.785s0.603,1.751,0.937,2.021
			c0.335,0.271,1.809,0.54,2.539,0.271c0.738-0.271,3.212-11.594,3.949-11.931c0.735-0.338,6.084,1.417,13.036,1.146
			c6.955-0.272,8.561-2.088,10.301-3.101c1.738-1.012,3.073-6.2,3.073-6.2l1.206,0.136c0,0,5.212,3.773,9.16,14.423
			c3.944,10.652,4.079,24.808,4.079,24.808l1.201,0.94c0,0,2.676-0.335,4.814,0c2.143,0.34,4.547,1.417,5.085,1.214
			c0.533-0.202,1.136-4.514,0.669-4.719c-0.469-0.198-8.96,0.135-8.96,0.135s-1.538-13.345-4.014-21.5
			c-2.472-8.157-10.432-17.323-10.432-17.323s1.605-5.864,1.74-6.945C137.807,24.769,136.669,21.868,135.532,21.6"/>
		<path fill="#005EAA" d="M136.805,12.974c-0.271,1.212-2.007,4.178-2.007,4.178s0.867-6.136,1.069-6.471
			c0.2-0.337,0.601-0.604,0.601-0.604S137.07,11.76,136.805,12.974 M139.676,10.951c-0.135-1.214-0.399-2.83-2.404-3.642
			c-2.006-0.81-3.344,0.812-3.746,1.35c-0.401,0.539-1.471,6.201-2.005,8.089c-0.538,1.888,1.873,3.37,1.873,3.37
			s0.936,0.674,2.538,0.136C137.537,19.712,139.813,12.164,139.676,10.951"/>
	</g>
	<path fill="#005EAA" d="M26.438,72.804c0.636,0.272,1.574,0.545,2.558,0.545c0.56,0,1.105-0.091,1.105-0.636
		c0-1.332-3.875-0.394-3.875-3.239c0-1.816,1.786-2.558,3.36-2.558c0.939,0,1.892,0.106,2.77,0.454l-0.212,1.892
		c-0.575-0.348-1.438-0.53-2.119-0.53c-0.59,0-1.256,0.106-1.256,0.545c0,1.226,4.057,0.257,4.057,3.254
		c0,2.104-1.892,2.634-3.678,2.634c-1.226,0-2.059-0.121-2.861-0.378L26.438,72.804z"/>
	<path fill="#005EAA" d="M33.463,67.097h1.604v-1.771l2.679-0.833v2.604h1.907v1.907h-1.907v2.906c0,0.954,0.227,1.438,1.09,1.438
		c0.273,0,0.56-0.061,0.833-0.106l0.091,1.771c-0.515,0.061-1.029,0.151-1.71,0.151c-2.437,0-3.027-1.075-3.027-2.952v-3.209h-1.559
		V67.097z"/>
	<path fill="#005EAA" d="M43.259,71.835c0.151,1.09,0.984,1.514,2.316,1.514c0.742,0,1.589-0.167,2.407-0.605v1.922
		c-0.878,0.348-1.877,0.499-2.891,0.499c-2.604,0-4.586-1.529-4.586-4.132s1.771-4.117,4.223-4.117c2.921,0,3.981,2.074,3.981,4.42
		v0.5H43.259z M46.256,70.291c0-0.908-0.424-1.65-1.514-1.65c-0.984,0-1.453,0.742-1.514,1.65H46.256z"/>
	<path fill="#005EAA" d="M50.073,67.097h2.513v1.423h0.03c0.545-1.105,1.695-1.604,2.937-1.604c2.18,0,3.375,2.074,3.375,3.981
		c0,2.331-1.256,4.268-3.603,4.268c-0.954,0-1.983-0.348-2.498-1.287h-0.03v4.284h-2.725V67.097z M54.462,69.004
		c-0.999,0-1.665,0.878-1.665,2.059c0,1.15,0.757,2.013,1.665,2.013c1.029,0,1.65-0.863,1.65-2.119
		C56.112,69.913,55.522,69.004,54.462,69.004z"/>
	<path fill="#005EAA" d="M60.188,67.097H62.7v1.423h0.03c0.545-1.105,1.695-1.604,2.937-1.604c2.18,0,3.376,2.074,3.376,3.981
		c0,2.331-1.256,4.268-3.603,4.268c-0.954,0-1.983-0.348-2.498-1.287h-0.03v4.284h-2.725V67.097z M64.577,69.004
		c-0.999,0-1.665,0.878-1.665,2.059c0,1.15,0.757,2.013,1.665,2.013c1.029,0,1.65-0.863,1.65-2.119
		C66.227,69.913,65.637,69.004,64.577,69.004z"/>
	<path fill="#005EAA" d="M73.405,65.811H70.68v-1.998h2.725V65.811z M70.68,67.097h2.725v7.886H70.68V67.097z"/>
	<path fill="#005EAA" d="M75.419,67.097h2.482v1.453h0.03c0.545-1.135,1.635-1.635,2.876-1.635c2.149,0,3.012,1.514,3.012,3.148
		v4.919h-2.725v-3.814c0-1.483-0.515-1.983-1.256-1.983c-1.12,0-1.695,0.772-1.695,2.467v3.33h-2.725V67.097z"/>
	<path fill="#005EAA" d="M93.874,74.06c0,3.239-1.574,4.284-4.753,4.284c-1.302,0-2.376-0.272-3.012-0.5l0.136-2.149
		c0.833,0.409,1.529,0.651,2.664,0.651c1.574,0,2.422-0.742,2.422-2.286v-0.424h-0.03c-0.651,0.923-1.559,1.347-2.649,1.347
		c-2.164,0-3.512-1.635-3.512-3.966c0-2.346,1.105-4.102,3.557-4.102c1.165,0,2.104,0.636,2.679,1.604h0.03v-1.423h2.467V74.06z
		 M89.5,72.895c0.969,0,1.741-0.817,1.741-2.028c0-0.878-0.515-1.862-1.741-1.862c-1.014,0-1.544,0.893-1.544,1.968
		C87.956,72.198,88.683,72.895,89.5,72.895z"/>
	<path fill="#E1B339" d="M98.979,72.804c0.636,0.272,1.574,0.545,2.558,0.545c0.56,0,1.105-0.091,1.105-0.636
		c0-1.332-3.875-0.394-3.875-3.239c0-1.816,1.786-2.558,3.36-2.558c0.938,0,1.892,0.106,2.77,0.454l-0.212,1.892
		c-0.575-0.348-1.438-0.53-2.119-0.53c-0.59,0-1.256,0.106-1.256,0.545c0,1.226,4.057,0.257,4.057,3.254
		c0,2.104-1.892,2.634-3.678,2.634c-1.226,0-2.059-0.121-2.861-0.378L98.979,72.804z"/>
	<path fill="#E1B339" d="M106.005,67.097h1.604v-1.771l2.679-0.833v2.604h1.907v1.907h-1.907v2.906c0,0.954,0.227,1.438,1.09,1.438
		c0.272,0,0.56-0.061,0.833-0.106l0.091,1.771c-0.515,0.061-1.029,0.151-1.71,0.151c-2.437,0-3.027-1.075-3.027-2.952v-3.209h-1.559
		V67.097z"/>
	<path fill="#E1B339" d="M113.046,71.048c0-2.619,1.983-4.132,4.586-4.132s4.587,1.514,4.587,4.132c0,2.604-1.983,4.117-4.587,4.117
		S113.046,73.651,113.046,71.048z M119.403,71.048c0-1.181-0.515-2.225-1.771-2.225c-1.256,0-1.771,1.044-1.771,2.225
		c0,1.165,0.515,2.21,1.771,2.21C118.889,73.258,119.403,72.213,119.403,71.048z"/>
	<path fill="#E1B339" d="M123.539,67.097h2.482v1.453h0.03c0.545-1.135,1.635-1.635,2.876-1.635c2.15,0,3.012,1.514,3.012,3.148
		v4.919h-2.725v-3.814c0-1.483-0.515-1.983-1.256-1.983c-1.12,0-1.695,0.772-1.695,2.467v3.33h-2.725V67.097z"/>
	<path fill="#E1B339" d="M136.015,71.835c0.151,1.09,0.984,1.514,2.316,1.514c0.742,0,1.589-0.167,2.407-0.605v1.922
		c-0.878,0.348-1.877,0.499-2.891,0.499c-2.604,0-4.586-1.529-4.586-4.132s1.771-4.117,4.223-4.117c2.921,0,3.981,2.074,3.981,4.42
		v0.5H136.015z M139.012,70.291c0-0.908-0.424-1.65-1.514-1.65c-0.984,0-1.453,0.742-1.514,1.65H139.012z"/>
</g>
</svg>
